<svg width="100" height="100" viewBox="0 0 100 100" fill="none" xmlns="http://www.w3.org/2000/svg">
<rect width="100" height="100" rx="22" fill="#0F172A"/>
<path d="M90.0005 49.9999V80.0817C90.0005 85.5544 85.5641 89.9999 80.0823 89.9999C76.0914 89.9999 72.7641 87.1726 71.9914 83.418C71.8823 82.8726 71.8187 82.309 71.8187 81.7362V49.9999C71.8187 48.7362 71.7096 47.4908 71.5005 46.2726C70.7459 41.8635 68.655 37.7999 65.4278 34.5726C61.3096 30.4544 55.8278 28.1817 50.0005 28.1817C44.1732 28.1817 38.6914 30.4544 34.5732 34.5726C31.3459 37.7999 29.255 41.8635 28.5005 46.2726C29.9641 34.0635 38.5641 24.0544 50.0005 20.509C52.8914 19.618 55.955 19.1362 59.1368 19.1362C76.1187 19.1362 89.9005 32.8544 90.0005 49.818C90.0005 49.8453 90.0005 49.8817 90.0005 49.909C90.0005 49.9362 90.0005 49.9726 90.0005 49.9999Z" fill="url(#paint0_linear_305_1722)"/>
<path d="M90 49.8182C89.9 32.8545 76.1182 19.1364 59.1364 19.1364C55.9545 19.1364 52.8909 19.6182 50 20.5091C38.5636 24.0545 29.9636 34.0636 28.5 46.2727C28.2909 47.4909 28.1818 48.7364 28.1818 50C28.1818 51.2636 28.2909 52.5091 28.5 53.7273C29.2545 58.1364 31.3455 62.2 34.5727 65.4273C38.6909 69.5455 44.1727 71.8182 50 71.8182C55.8273 71.8182 61.3091 69.5455 65.4273 65.4273C68.6545 62.2 70.7455 58.1364 71.5 53.7273C70.0364 65.9364 61.4364 75.9454 50 79.4909C47.1091 80.3818 44.0455 80.8636 40.8636 80.8636C23.8182 80.8636 10 67.0455 10 50C10 44.6 11.0636 39.3636 13.1455 34.4273C15.1636 29.6636 18.0455 25.3818 21.7091 21.7182C25.3818 18.0455 29.6545 15.1636 34.4182 13.1545C39.3636 11.0636 44.6 10 50 10C55.4 10 60.6364 11.0636 65.5727 13.1455C70.3364 15.1636 74.6182 18.0455 78.2818 21.7091C81.9545 25.3818 84.8364 29.6545 86.8455 34.4182C88.9182 39.3091 89.9727 44.4818 90 49.8182Z" fill="url(#paint1_linear_305_1722)"/>
<path d="M71.9909 83.4181C69.9727 84.7544 67.8273 85.8999 65.5727 86.8544C60.6364 88.9362 55.4 89.9999 50 89.9999C44.6 89.9999 39.3636 88.9362 34.4273 86.8544C29.6636 84.8362 25.3818 81.9544 21.7182 78.2908C18.0455 74.6181 15.1636 70.3453 13.1545 65.5817C11.0636 60.6362 10 55.3999 10 49.9999C10 67.0453 23.8182 80.8635 40.8636 80.8635C44.0455 80.8635 47.1091 80.3817 50 79.4908C61.4364 75.9453 70.0364 65.9362 71.5 53.7272C71.7091 52.509 71.8182 51.2635 71.8182 49.9999V81.7362C71.8182 82.309 71.8818 82.8726 71.9909 83.4181Z" fill="url(#paint2_linear_305_1722)"/>
<defs>
<linearGradient id="paint0_linear_305_1722" x1="45.7885" y1="22.2594" x2="86.0345" y2="89.4181" gradientUnits="userSpaceOnUse">
<stop stop-color="#16A34A"/>
<stop offset="0.218" stop-color="#22C55E"/>
<stop offset="0.5304" stop-color="#22C55E"/>
<stop offset="0.8019" stop-color="#4ADE80"/>
<stop offset="1" stop-color="#4ADE80"/>
</linearGradient>
<linearGradient id="paint1_linear_305_1722" x1="39.7649" y1="11.2867" x2="57.2227" y2="78.2262" gradientUnits="userSpaceOnUse">
<stop stop-color="#4ADE80"/>
<stop offset="0.4911" stop-color="#4ADE80"/>
<stop offset="0.8259" stop-color="#86EFAC"/>
<stop offset="1" stop-color="#86EFAC"/>
</linearGradient>
<linearGradient id="paint2_linear_305_1722" x1="14.9566" y1="74.8776" x2="74.4721" y2="59.8083" gradientUnits="userSpaceOnUse">
<stop stop-color="#4ADE80"/>
<stop offset="0.2803" stop-color="#4ADE80"/>
<stop offset="0.4913" stop-color="#22C55E"/>
<stop offset="0.6796" stop-color="#22C55E"/>
<stop offset="1" stop-color="#16A34A"/>
</linearGradient>
</defs>
</svg>
